<?xml version="1.0" encoding="UTF-8"?><svg id="Layer_1" xmlns="http://www.w3.org/2000/svg" width="316" height="316" xmlns:xlink="http://www.w3.org/1999/xlink" viewBox="0 0 316 316"><defs><style>.cls-1{fill:#cecafc;}.cls-2{fill:url(#radial-gradient);stroke:#cfc9e4;stroke-miterlimit:10;}.cls-3{fill:#fff;opacity:.65;}</style><radialGradient id="radial-gradient" cx="158" cy="158" fx="158" fy="158" r="157.5" gradientUnits="userSpaceOnUse"><stop offset="0" stop-color="#9c98ca" stop-opacity="0"/><stop offset=".44" stop-color="#9c98ca" stop-opacity="0"/><stop offset=".59" stop-color="#9c98ca" stop-opacity=".04"/><stop offset=".71" stop-color="#9c98ca" stop-opacity=".1"/><stop offset=".8" stop-color="#9c98ca" stop-opacity=".18"/><stop offset=".87" stop-color="#9c98ca" stop-opacity=".29"/><stop offset=".91" stop-color="#9c98ca" stop-opacity=".36"/><stop offset=".92" stop-color="#9c98ca" stop-opacity=".4"/><stop offset=".94" stop-color="#9c98ca" stop-opacity=".53"/><stop offset=".97" stop-color="#9c98ca" stop-opacity=".73"/><stop offset="1" stop-color="#9c98ca"/></radialGradient></defs><g><circle class="cls-2" cx="158" cy="158" r="157.5"/><path class="cls-3" d="M204.3,44.47c0,19.48-22.32,2-46.3,1.82-22.6-.17-46.3,17.21-46.3-2.27s24.04-24.5,46.64-24.5,45.96,5.46,45.96,24.95Z"/><path class="cls-3" d="M109.69,274.85c0-19.48,24.26,.89,47.85,.89s48.77-19.93,48.77-.44-25.08,24.5-48.66,24.5-47.96-5.46-47.96-24.95Z"/></g><g><path class="cls-1" d="M98.45,158v-21.3h9.03c.98,0,1.88,.2,2.71,.6,.83,.4,1.54,.94,2.15,1.62,.6,.68,1.06,1.44,1.4,2.28s.5,1.7,.5,2.58c0,1.18-.27,2.31-.81,3.4-.54,1.09-1.31,1.98-2.29,2.66-.99,.68-2.15,1.02-3.46,1.02h-5.07v7.14h-4.14Zm4.14-10.77h4.8c.52,0,.98-.14,1.38-.42,.4-.28,.71-.68,.94-1.21,.23-.53,.35-1.13,.35-1.81,0-.74-.14-1.37-.41-1.88-.27-.51-.62-.9-1.05-1.17-.43-.27-.9-.41-1.4-.41h-4.62v6.9Z"/><path class="cls-1" d="M123.68,158.3c-1.28,0-2.43-.22-3.44-.65s-1.88-1.03-2.59-1.78c-.72-.75-1.27-1.61-1.64-2.57-.37-.96-.55-1.97-.55-3.04s.18-2.15,.55-3.12c.37-.97,.91-1.82,1.62-2.57,.71-.74,1.58-1.33,2.6-1.75s2.16-.64,3.42-.64,2.45,.21,3.46,.64c1.01,.43,1.88,1.01,2.6,1.75,.72,.74,1.27,1.6,1.65,2.57,.38,.97,.57,2.01,.57,3.12s-.19,2.08-.57,3.04c-.38,.96-.93,1.82-1.65,2.57-.72,.75-1.59,1.35-2.6,1.78-1.01,.43-2.16,.65-3.44,.65Zm-4.11-8.04c0,.88,.18,1.68,.54,2.38s.85,1.26,1.48,1.65c.63,.39,1.32,.59,2.08,.59s1.45-.2,2.07-.6c.62-.4,1.11-.95,1.48-1.65,.37-.7,.56-1.5,.56-2.4s-.19-1.67-.56-2.37c-.37-.7-.87-1.25-1.48-1.65-.62-.4-1.32-.6-2.1-.6s-1.45,.2-2.07,.6c-.62,.4-1.11,.95-1.47,1.65s-.54,1.5-.54,2.4Z"/><path class="cls-1" d="M143.99,145.76c-1.24,.02-2.34,.25-3.3,.71s-1.66,1.12-2.1,2v9.54h-3.99v-15.57h3.69v3.21c.56-1.08,1.27-1.93,2.15-2.55,.87-.62,1.79-.96,2.75-1.02,.2,.02,.36,.03,.48,.01,.12,0,.23,0,.33,.04v3.63Z"/><path class="cls-1" d="M155.63,157.22c-.36,.16-.78,.33-1.25,.5-.47,.17-.98,.31-1.53,.42-.55,.11-1.11,.17-1.67,.17-.76,0-1.45-.13-2.07-.39-.62-.26-1.12-.67-1.49-1.23-.37-.56-.55-1.3-.55-2.21v-8.98h-2.04v-3.06h2.04v-5.1h4.05v5.1h3.3v3.06h-3.3v7.61c.02,.53,.17,.92,.45,1.17,.28,.25,.64,.37,1.08,.37,.4,0,.8-.07,1.2-.22,.4-.15,.73-.29,.99-.41l.78,3.21Z"/><path class="cls-1" d="M158.63,158v-11.82h-2.07v-3.09h2.07v-.93c0-1.3,.21-2.42,.65-3.38,.43-.95,1.04-1.68,1.81-2.21,.78-.52,1.7-.78,2.76-.78,.66,0,1.31,.08,1.97,.24,.65,.16,1.28,.39,1.9,.69l-.78,3.03c-.3-.18-.66-.31-1.06-.4-.41-.09-.79-.14-1.12-.14-.7,0-1.23,.24-1.58,.71-.35,.47-.52,1.17-.52,2.08v1.08h3.84v3.09h-3.84v11.82h-4.02Z"/><path class="cls-1" d="M175.82,158.3c-1.28,0-2.43-.22-3.44-.65s-1.88-1.03-2.59-1.78c-.72-.75-1.27-1.61-1.64-2.57-.37-.96-.55-1.97-.55-3.04s.18-2.15,.55-3.12c.37-.97,.91-1.82,1.62-2.57,.71-.74,1.58-1.33,2.6-1.75s2.16-.64,3.42-.64,2.45,.21,3.46,.64c1.01,.43,1.88,1.01,2.6,1.75,.72,.74,1.27,1.6,1.65,2.57,.38,.97,.57,2.01,.57,3.12s-.19,2.08-.57,3.04c-.38,.96-.93,1.82-1.65,2.57-.72,.75-1.59,1.35-2.6,1.78-1.01,.43-2.16,.65-3.44,.65Zm-4.11-8.04c0,.88,.18,1.68,.54,2.38s.85,1.26,1.48,1.65c.63,.39,1.32,.59,2.08,.59s1.45-.2,2.07-.6c.62-.4,1.11-.95,1.48-1.65,.37-.7,.56-1.5,.56-2.4s-.19-1.67-.56-2.37c-.37-.7-.87-1.25-1.48-1.65-.62-.4-1.32-.6-2.1-.6s-1.45,.2-2.07,.6c-.62,.4-1.11,.95-1.47,1.65s-.54,1.5-.54,2.4Z"/><path class="cls-1" d="M186.71,136.1h4.02v16.88c0,.74,.12,1.24,.36,1.49,.24,.25,.56,.38,.96,.38,.36,0,.71-.04,1.03-.12,.33-.08,.62-.19,.89-.33l.54,3.09c-.54,.26-1.17,.46-1.88,.6-.71,.14-1.37,.21-1.97,.21-1.26,0-2.23-.33-2.92-1.01-.69-.67-1.04-1.62-1.04-2.84v-18.35Z"/><path class="cls-1" d="M196.25,140.06v-3.96h3.99v3.96h-3.99Zm0,17.94v-15.72h3.99v15.72h-3.99Z"/><path class="cls-1" d="M211.16,158.3c-1.28,0-2.43-.22-3.44-.65s-1.88-1.03-2.59-1.78c-.72-.75-1.27-1.61-1.64-2.57-.37-.96-.55-1.97-.55-3.04s.18-2.15,.55-3.12c.37-.97,.91-1.82,1.62-2.57,.71-.74,1.58-1.33,2.6-1.75s2.16-.64,3.42-.64,2.45,.21,3.46,.64c1.01,.43,1.88,1.01,2.6,1.75,.72,.74,1.27,1.6,1.65,2.57,.38,.97,.57,2.01,.57,3.12s-.19,2.08-.57,3.04c-.38,.96-.93,1.82-1.65,2.57-.72,.75-1.59,1.35-2.6,1.78-1.01,.43-2.16,.65-3.44,.65Zm-4.11-8.04c0,.88,.18,1.68,.54,2.38s.85,1.26,1.48,1.65c.63,.39,1.32,.59,2.08,.59s1.45-.2,2.07-.6c.62-.4,1.11-.95,1.48-1.65,.37-.7,.56-1.5,.56-2.4s-.19-1.67-.56-2.37c-.37-.7-.87-1.25-1.48-1.65-.62-.4-1.32-.6-2.1-.6s-1.45,.2-2.07,.6c-.62,.4-1.11,.95-1.47,1.65s-.54,1.5-.54,2.4Z"/><path class="cls-1" d="M105.62,194.3c-1.26,0-2.4-.21-3.42-.64s-1.89-1.01-2.61-1.75c-.72-.74-1.27-1.59-1.65-2.54s-.57-1.97-.57-3.06c0-1.46,.33-2.81,1-4.05,.67-1.24,1.62-2.23,2.85-2.97s2.7-1.11,4.42-1.11,3.16,.37,4.38,1.11c1.22,.74,2.16,1.72,2.82,2.93,.66,1.21,.99,2.53,.99,3.95,0,.26-.01,.5-.03,.73-.02,.23-.04,.42-.06,.58h-12.12c.06,.82,.29,1.52,.68,2.1,.39,.58,.89,1.02,1.5,1.33,.61,.31,1.25,.47,1.94,.47,.82,0,1.58-.19,2.29-.58,.71-.39,1.19-.92,1.46-1.57l3.42,.96c-.36,.8-.89,1.51-1.59,2.13s-1.53,1.11-2.49,1.46-2.03,.52-3.21,.52Zm-4.11-9.33h8.22c-.08-.78-.31-1.46-.67-2.04-.37-.58-.85-1.03-1.46-1.35s-1.27-.48-2.01-.48-1.38,.16-1.96,.48c-.59,.32-1.07,.77-1.44,1.35-.37,.58-.6,1.26-.68,2.04Z"/><path class="cls-1" d="M127.04,194l-4.59-6.73-2.16,2.08v4.64h-3.99v-21.9h3.99v13.33l6.36-7h4.26l-5.85,6.61,6.27,8.96h-4.29Z"/><path class="cls-1" d="M138.74,194.3c-1.34,0-2.62-.22-3.85-.66-1.23-.44-2.28-1.09-3.14-1.95l1.47-2.61c.92,.76,1.83,1.32,2.73,1.68,.9,.36,1.78,.54,2.64,.54,.78,0,1.4-.13,1.88-.41,.47-.27,.7-.67,.7-1.21,0-.39-.13-.7-.39-.9-.26-.21-.64-.39-1.12-.53-.49-.15-1.09-.32-1.79-.52-1.16-.36-2.13-.72-2.9-1.08-.77-.37-1.35-.82-1.75-1.36-.4-.54-.6-1.24-.6-2.09,0-1.03,.26-1.91,.79-2.65,.53-.74,1.27-1.32,2.22-1.73,.95-.42,2.06-.62,3.34-.62,1.12,0,2.18,.17,3.18,.52,1,.35,1.91,.92,2.73,1.7l-1.65,2.58c-.78-.64-1.53-1.11-2.25-1.4-.72-.29-1.45-.43-2.19-.43-.42,0-.82,.05-1.19,.15-.37,.1-.67,.26-.9,.49-.23,.23-.35,.55-.35,.96,0,.35,.1,.64,.31,.86s.53,.4,.96,.56,.96,.33,1.58,.53c1.26,.35,2.32,.71,3.18,1.08s1.52,.82,1.97,1.37c.45,.55,.67,1.3,.67,2.24,0,1.54-.57,2.74-1.71,3.6s-2.67,1.3-4.59,1.3Z"/><path class="cls-1" d="M146.69,189.41c0-1.01,.29-1.89,.85-2.64s1.36-1.34,2.37-1.76c1.01-.42,2.18-.64,3.52-.64,.66,0,1.33,.05,2.01,.15,.68,.1,1.27,.26,1.77,.48v-.87c0-.96-.29-1.71-.87-2.24-.58-.53-1.45-.8-2.61-.8-.88,0-1.71,.15-2.49,.45-.78,.3-1.6,.73-2.46,1.29l-1.26-2.61c1.02-.7,2.07-1.22,3.17-1.55,1.09-.33,2.24-.49,3.44-.49,2.24,0,3.98,.55,5.23,1.64,1.25,1.09,1.88,2.68,1.88,4.75v4.94c0,.41,.08,.71,.23,.89,.15,.18,.4,.29,.73,.33v3.27c-.36,.06-.69,.11-.97,.15-.29,.04-.54,.05-.74,.03-.8,0-1.41-.17-1.81-.52-.41-.35-.66-.79-.73-1.31l-.09-.81c-.7,.88-1.56,1.56-2.58,2.04-1.02,.48-2.06,.72-3.12,.72s-1.98-.22-2.81-.65c-.83-.43-1.48-1.02-1.95-1.76-.47-.74-.71-1.57-.71-2.48Zm9.78,.75c.22-.19,.4-.42,.54-.67,.14-.25,.21-.47,.21-.64v-1.55c-.48-.2-1-.35-1.56-.45-.56-.11-1.09-.16-1.59-.16-1.04,0-1.9,.22-2.56,.66-.67,.44-1,1.02-1,1.74,0,.39,.11,.77,.33,1.13,.22,.36,.53,.65,.94,.86,.41,.21,.92,.32,1.52,.32s1.19-.12,1.77-.35c.58-.23,1.05-.53,1.41-.88Z"/><path class="cls-1" d="M189.41,194h-4.02v-8.69c0-1.24-.22-2.15-.65-2.72-.43-.57-1.02-.86-1.79-.86-.8,0-1.55,.3-2.25,.9-.7,.6-1.2,1.38-1.5,2.32v9.05h-4.05v-8.69c0-1.24-.21-2.15-.63-2.72-.42-.57-1.01-.86-1.77-.86s-1.53,.29-2.25,.88c-.72,.59-1.23,1.36-1.53,2.31v9.08h-3.99v-15.57h3.63v2.9c.6-1.01,1.4-1.78,2.42-2.33,1.01-.54,2.15-.82,3.44-.82s2.31,.32,3.04,.95c.73,.63,1.19,1.41,1.4,2.34,.64-1.07,1.46-1.88,2.44-2.45,.99-.56,2.12-.84,3.38-.84,.96,0,1.74,.17,2.35,.52,.61,.35,1.08,.81,1.43,1.39,.34,.58,.57,1.24,.71,1.97,.13,.73,.19,1.46,.19,2.19v9.73Z"/><path class="cls-1" d="M200.21,194.3c-1.26,0-2.4-.21-3.42-.64s-1.89-1.01-2.61-1.75c-.72-.74-1.27-1.59-1.65-2.54s-.57-1.97-.57-3.06c0-1.46,.33-2.81,1-4.05,.67-1.24,1.62-2.23,2.85-2.97s2.7-1.11,4.42-1.11,3.16,.37,4.38,1.11c1.22,.74,2.16,1.72,2.82,2.93,.66,1.21,.99,2.53,.99,3.95,0,.26-.01,.5-.03,.73-.02,.23-.04,.42-.06,.58h-12.12c.06,.82,.29,1.52,.68,2.1,.39,.58,.89,1.02,1.5,1.33,.61,.31,1.25,.47,1.94,.47,.82,0,1.58-.19,2.29-.58,.71-.39,1.19-.92,1.46-1.57l3.42,.96c-.36,.8-.89,1.51-1.59,2.13s-1.53,1.11-2.49,1.46-2.03,.52-3.21,.52Zm-4.11-9.33h8.22c-.08-.78-.31-1.46-.67-2.04-.37-.58-.85-1.03-1.46-1.35s-1.27-.48-2.01-.48-1.38,.16-1.96,.48c-.59,.32-1.07,.77-1.44,1.35-.37,.58-.6,1.26-.68,2.04Z"/><path class="cls-1" d="M225.5,194h-4.02v-8.69c0-1.24-.21-2.15-.65-2.72-.43-.57-1.05-.86-1.84-.86-.54,0-1.09,.14-1.64,.41-.55,.27-1.04,.65-1.47,1.13-.43,.48-.77,1.03-1.01,1.66v9.08h-3.99v-15.57h3.63v2.9c.4-.67,.91-1.24,1.53-1.69,.62-.46,1.33-.81,2.13-1.07,.8-.26,1.66-.39,2.58-.39,.98,0,1.78,.17,2.42,.52,.63,.35,1.11,.82,1.44,1.41,.33,.59,.56,1.25,.69,1.97,.13,.72,.19,1.45,.19,2.18v9.73Z"/></g></svg>