<?xml version="1.0" encoding="UTF-8"?><svg id="Layer_1" xmlns="http://www.w3.org/2000/svg" width="316" height="316" xmlns:xlink="http://www.w3.org/1999/xlink" viewBox="0 0 316 316"><defs><style>.cls-1{fill:#cecafc;}.cls-2{fill:url(#radial-gradient);stroke:#cfc9e4;stroke-miterlimit:10;}.cls-3{fill:#fff;opacity:.65;}</style><radialGradient id="radial-gradient" cx="158" cy="158" fx="158" fy="158" r="157.5" gradientUnits="userSpaceOnUse"><stop offset="0" stop-color="#9c98ca" stop-opacity="0"/><stop offset=".44" stop-color="#9c98ca" stop-opacity="0"/><stop offset=".59" stop-color="#9c98ca" stop-opacity=".04"/><stop offset=".71" stop-color="#9c98ca" stop-opacity=".1"/><stop offset=".8" stop-color="#9c98ca" stop-opacity=".18"/><stop offset=".87" stop-color="#9c98ca" stop-opacity=".29"/><stop offset=".91" stop-color="#9c98ca" stop-opacity=".36"/><stop offset=".92" stop-color="#9c98ca" stop-opacity=".4"/><stop offset=".94" stop-color="#9c98ca" stop-opacity=".53"/><stop offset=".97" stop-color="#9c98ca" stop-opacity=".73"/><stop offset="1" stop-color="#9c98ca"/></radialGradient></defs><g><circle class="cls-2" cx="158" cy="158" r="157.5"/><path class="cls-3" d="M204.3,44.47c0,19.48-22.32,2-46.3,1.82-22.6-.17-46.3,17.21-46.3-2.27s24.04-24.5,46.64-24.5,45.96,5.46,45.96,24.95Z"/><path class="cls-3" d="M109.69,274.85c0-19.48,24.26,.89,47.85,.89s48.77-19.93,48.77-.44-25.08,24.5-48.66,24.5-47.96-5.46-47.96-24.95Z"/></g><g><path class="cls-1" d="M46.25,158.15c-1.4,0-2.71-.28-3.93-.83-1.22-.55-2.29-1.33-3.23-2.33-.93-1-1.66-2.16-2.17-3.46-.52-1.31-.78-2.75-.78-4.3,0-1.46,.26-2.84,.79-4.12,.53-1.29,1.26-2.43,2.19-3.42,.93-.99,2.03-1.76,3.29-2.31,1.26-.55,2.62-.83,4.08-.83,2.02,0,3.74,.42,5.17,1.26,1.43,.84,2.5,1.97,3.22,3.39l-3.09,2.28c-.52-1.06-1.27-1.87-2.25-2.43-.98-.56-2.04-.84-3.18-.84-.9,0-1.73,.19-2.48,.57s-1.39,.9-1.93,1.56-.95,1.42-1.23,2.28c-.28,.86-.42,1.77-.42,2.73,0,1.02,.16,1.96,.47,2.82,.31,.86,.75,1.62,1.32,2.26,.57,.65,1.24,1.16,2,1.52,.76,.36,1.6,.54,2.52,.54,1.1,0,2.14-.28,3.12-.84,.98-.56,1.9-1.38,2.76-2.46v4.11c-1.78,1.9-3.86,2.85-6.24,2.85Zm5.94-8.07h-4.29v-3.03h7.71v10.95h-3.42v-7.92Z"/><path class="cls-1" d="M68.15,145.76c-1.24,.02-2.34,.25-3.3,.71s-1.66,1.12-2.1,2v9.54h-3.99v-15.57h3.69v3.21c.56-1.08,1.28-1.93,2.15-2.55,.87-.62,1.79-.96,2.75-1.02,.2,.02,.36,.03,.48,.01,.12,0,.23,0,.33,.04v3.63Z"/><path class="cls-1" d="M70.19,152.18v-9.75h4.05v8.86c0,1.19,.22,2.08,.66,2.68,.44,.6,1.09,.9,1.95,.9,.52,0,1.04-.1,1.54-.31,.51-.21,.98-.51,1.41-.92,.43-.41,.79-.93,1.09-1.56v-9.66h4.05v11.08c0,.42,.07,.71,.21,.89s.38,.29,.72,.33v3.27c-.4,.06-.73,.11-1,.13-.27,.03-.51,.04-.73,.04-.7,0-1.28-.17-1.73-.5s-.72-.78-.83-1.34l-.09-1.25c-.7,1.05-1.59,1.85-2.68,2.39-1.09,.54-2.31,.82-3.65,.82-1.62,0-2.85-.52-3.71-1.56-.85-1.04-1.27-2.56-1.27-4.56Z"/><path class="cls-1" d="M103.52,158h-4.02v-8.69c0-1.24-.21-2.15-.64-2.72-.43-.57-1.05-.86-1.84-.86-.54,0-1.09,.14-1.64,.41s-1.04,.65-1.47,1.13c-.43,.48-.76,1.03-1,1.66v9.08h-3.99v-15.57h3.63v2.9c.4-.67,.91-1.24,1.53-1.69s1.33-.81,2.13-1.07,1.66-.39,2.58-.39c.98,0,1.79,.17,2.42,.52,.63,.35,1.11,.82,1.44,1.41,.33,.59,.56,1.25,.69,1.97s.2,1.45,.2,2.18v9.73Z"/><path class="cls-1" d="M106.07,150.23c0-1.48,.3-2.84,.9-4.07,.6-1.23,1.43-2.19,2.49-2.91,1.06-.71,2.27-1.07,3.63-1.07,1.14,0,2.18,.28,3.12,.85,.94,.57,1.66,1.29,2.16,2.17v-9.12h4.05v17.4c0,.42,.07,.72,.21,.9,.14,.18,.38,.29,.72,.33v3.27c-.72,.14-1.29,.2-1.71,.18-.72,.02-1.32-.15-1.79-.51s-.73-.83-.79-1.41l-.06-.99c-.58,.98-1.37,1.73-2.36,2.25-.99,.52-2.02,.78-3.1,.78s-2.08-.2-2.99-.61c-.91-.41-1.7-.98-2.37-1.72-.67-.74-1.19-1.6-1.56-2.58-.37-.98-.55-2.03-.55-3.16Zm12.33,2.03v-3.65c-.2-.57-.52-1.08-.96-1.53-.44-.45-.93-.81-1.47-1.07-.54-.27-1.08-.4-1.62-.4-.62,0-1.18,.13-1.68,.38s-.94,.6-1.3,1.03c-.37,.43-.65,.93-.84,1.49-.19,.56-.29,1.15-.29,1.78s.11,1.25,.33,1.81c.22,.56,.52,1.05,.9,1.47s.84,.75,1.38,.97,1.12,.34,1.74,.34c.4,0,.79-.06,1.17-.19,.38-.13,.75-.31,1.09-.54,.35-.24,.67-.51,.95-.82,.28-.31,.48-.67,.6-1.06Z"/><path class="cls-1" d="M126.35,136.1h4.02v16.88c0,.74,.12,1.24,.36,1.49,.24,.25,.56,.38,.96,.38,.36,0,.71-.04,1.04-.12s.62-.19,.88-.33l.54,3.09c-.54,.26-1.17,.46-1.88,.6s-1.37,.21-1.96,.21c-1.26,0-2.24-.33-2.92-1.01-.69-.67-1.04-1.62-1.04-2.84v-18.35Z"/><path class="cls-1" d="M140.15,158.3c-1,0-1.91-.22-2.71-.65-.81-.43-1.45-1.02-1.92-1.76-.47-.74-.71-1.58-.71-2.5,0-.99,.29-1.86,.85-2.61,.57-.75,1.35-1.34,2.36-1.76,1-.42,2.16-.64,3.48-.64,.66,0,1.29,.06,1.91,.17,.61,.11,1.16,.25,1.63,.43,.02-.22,.04-.44,.08-.67s.08-.44,.17-.64c-.1-.87-.43-1.53-.99-1.99s-1.38-.69-2.46-.69c-.84,0-1.66,.15-2.46,.45-.8,.3-1.63,.73-2.49,1.29l-1.2-2.52c2.04-1.34,4.21-2.01,6.51-2.01,1.26,0,2.35,.19,3.27,.58,.92,.39,1.67,.94,2.25,1.67,.66-.7,1.46-1.25,2.42-1.65,.95-.4,2-.6,3.17-.6,1.7,0,3.17,.37,4.41,1.11,1.24,.74,2.19,1.72,2.85,2.93,.66,1.21,.99,2.54,.99,4.01,0,.22,0,.44-.03,.67-.02,.23-.04,.42-.06,.58h-12.3c.06,.82,.29,1.52,.69,2.1,.4,.58,.92,1.02,1.56,1.33,.64,.31,1.33,.47,2.07,.47,.8,0,1.55-.19,2.26-.58,.71-.39,1.21-.92,1.49-1.57l3.42,.96c-.4,.8-.95,1.51-1.65,2.13s-1.53,1.11-2.49,1.46-2.02,.52-3.18,.52c-1.46,0-2.77-.29-3.93-.88-1.16-.59-2.09-1.38-2.79-2.36-.48,.76-1.08,1.38-1.82,1.86-.73,.48-1.5,.83-2.31,1.05-.81,.22-1.59,.33-2.33,.33Zm1.17-2.91c.66,0,1.3-.12,1.92-.37s1.11-.56,1.47-.95c.42-.31,.63-.66,.63-1.05-.08-.25-.14-.56-.19-.92-.05-.36-.09-.69-.11-.98-.44-.14-.92-.25-1.42-.35-.51-.1-1-.15-1.46-.15-1.04,0-1.89,.22-2.55,.67-.66,.45-.99,1.03-.99,1.76,0,.43,.12,.82,.34,1.19,.23,.36,.55,.64,.96,.85,.41,.21,.87,.31,1.39,.31Zm16.08-6.36c-.06-.78-.28-1.47-.66-2.05-.38-.59-.87-1.05-1.47-1.38-.6-.33-1.28-.5-2.04-.5s-1.45,.17-2.05,.5c-.61,.33-1.1,.79-1.46,1.36-.36,.58-.57,1.27-.63,2.07h8.31Z"/><path class="cls-1" d="M170.15,158.3c-1.04,0-2-.21-2.87-.63s-1.62-1-2.24-1.73c-.62-.73-1.1-1.58-1.44-2.54-.34-.96-.51-1.98-.51-3.07,0-1.14,.17-2.2,.52-3.19,.35-.98,.85-1.85,1.5-2.6,.65-.75,1.42-1.33,2.31-1.74,.89-.41,1.88-.62,2.96-.62,1.22,0,2.29,.27,3.21,.81,.92,.54,1.68,1.27,2.28,2.19v-2.76h3.51v14.87c0,1.55-.38,2.88-1.14,3.98s-1.79,1.95-3.09,2.53c-1.3,.58-2.8,.88-4.5,.88s-3.14-.29-4.32-.86-2.19-1.38-3.03-2.42l2.19-2.13c.6,.74,1.35,1.32,2.27,1.74,.91,.42,1.88,.63,2.89,.63,.84,0,1.62-.15,2.34-.44,.72-.29,1.29-.74,1.71-1.36,.42-.61,.63-1.41,.63-2.41v-1.98c-.5,.9-1.22,1.59-2.17,2.08-.95,.49-1.96,.73-3.01,.73Zm1.35-3.21c.46,0,.88-.07,1.28-.21,.39-.14,.75-.33,1.09-.57s.64-.53,.9-.86c.26-.33,.45-.68,.57-1.04v-3.73c-.22-.62-.54-1.16-.97-1.62-.43-.46-.91-.82-1.44-1.07s-1.08-.38-1.67-.38-1.15,.13-1.67,.39c-.51,.26-.94,.62-1.3,1.08s-.64,.98-.84,1.56c-.2,.58-.3,1.18-.3,1.81s.11,1.24,.34,1.81c.23,.56,.54,1.06,.93,1.49,.39,.43,.86,.76,1.4,.99s1.1,.35,1.68,.35Z"/><path class="cls-1" d="M189.17,158.3c-1.04,0-2-.21-2.87-.63s-1.62-1-2.24-1.73c-.62-.73-1.1-1.58-1.44-2.54-.34-.96-.51-1.98-.51-3.07,0-1.14,.17-2.2,.52-3.19,.35-.98,.85-1.85,1.5-2.6,.65-.75,1.42-1.33,2.31-1.74,.89-.41,1.88-.62,2.96-.62,1.22,0,2.29,.27,3.21,.81,.92,.54,1.68,1.27,2.28,2.19v-2.76h3.51v14.87c0,1.55-.38,2.88-1.14,3.98s-1.79,1.95-3.09,2.53c-1.3,.58-2.8,.88-4.5,.88s-3.14-.29-4.32-.86-2.19-1.38-3.03-2.42l2.19-2.13c.6,.74,1.35,1.32,2.27,1.74,.91,.42,1.88,.63,2.89,.63,.84,0,1.62-.15,2.34-.44,.72-.29,1.29-.74,1.71-1.36,.42-.61,.63-1.41,.63-2.41v-1.98c-.5,.9-1.22,1.59-2.17,2.08-.95,.49-1.96,.73-3.01,.73Zm1.35-3.21c.46,0,.88-.07,1.28-.21,.39-.14,.75-.33,1.09-.57s.64-.53,.9-.86c.26-.33,.45-.68,.57-1.04v-3.73c-.22-.62-.54-1.16-.97-1.62-.43-.46-.91-.82-1.44-1.07s-1.08-.38-1.67-.38-1.15,.13-1.67,.39c-.51,.26-.94,.62-1.3,1.08s-.64,.98-.84,1.56c-.2,.58-.3,1.18-.3,1.81s.11,1.24,.34,1.81c.23,.56,.54,1.06,.93,1.49,.39,.43,.86,.76,1.4,.99s1.1,.35,1.68,.35Z"/><path class="cls-1" d="M209.33,158.3c-1.26,0-2.4-.21-3.42-.64-1.02-.42-1.89-1.01-2.61-1.75-.72-.74-1.27-1.59-1.65-2.54s-.57-1.97-.57-3.06c0-1.46,.33-2.81,1-4.05,.67-1.24,1.62-2.23,2.85-2.97,1.23-.74,2.7-1.11,4.42-1.11s3.16,.37,4.38,1.11c1.22,.74,2.16,1.72,2.82,2.93,.66,1.21,.99,2.53,.99,3.95,0,.26,0,.5-.03,.73-.02,.23-.04,.42-.06,.58h-12.12c.06,.82,.29,1.52,.68,2.1,.39,.58,.89,1.02,1.5,1.33,.61,.31,1.25,.47,1.93,.47,.82,0,1.58-.19,2.29-.58,.71-.39,1.2-.92,1.46-1.57l3.42,.96c-.36,.8-.89,1.51-1.59,2.13s-1.53,1.11-2.49,1.46-2.03,.52-3.21,.52Zm-4.11-9.33h8.22c-.08-.78-.31-1.46-.67-2.04-.37-.58-.86-1.03-1.46-1.35-.6-.32-1.27-.48-2.01-.48s-1.38,.16-1.96,.48-1.07,.77-1.44,1.35c-.37,.58-.6,1.26-.68,2.04Z"/><path class="cls-1" d="M234.62,158h-4.02v-8.69c0-1.24-.21-2.15-.65-2.72-.43-.57-1.04-.86-1.84-.86-.54,0-1.08,.14-1.63,.41-.55,.27-1.04,.65-1.47,1.13-.43,.48-.77,1.03-1.01,1.66v9.08h-3.99v-15.57h3.63v2.9c.4-.67,.91-1.24,1.53-1.69,.62-.46,1.33-.81,2.13-1.07,.8-.26,1.66-.39,2.58-.39,.98,0,1.78,.17,2.42,.52,.63,.35,1.11,.82,1.44,1.41,.33,.59,.56,1.25,.69,1.97,.13,.72,.19,1.45,.19,2.18v9.73Z"/><path class="cls-1" d="M237.17,150.23c0-1.48,.3-2.84,.9-4.07,.6-1.23,1.43-2.19,2.49-2.91,1.06-.71,2.27-1.07,3.63-1.07,1.14,0,2.18,.28,3.12,.85,.94,.57,1.66,1.29,2.16,2.17v-9.12h4.05v17.4c0,.42,.07,.72,.21,.9,.14,.18,.38,.29,.72,.33v3.27c-.72,.14-1.29,.2-1.71,.18-.72,.02-1.32-.15-1.79-.51s-.74-.83-.79-1.41l-.06-.99c-.58,.98-1.36,1.73-2.35,2.25-.99,.52-2.03,.78-3.11,.78s-2.08-.2-2.98-.61c-.91-.41-1.7-.98-2.37-1.72-.67-.74-1.19-1.6-1.56-2.58-.37-.98-.55-2.03-.55-3.16Zm12.33,2.03v-3.65c-.2-.57-.52-1.08-.96-1.53-.44-.45-.93-.81-1.47-1.07-.54-.27-1.08-.4-1.62-.4-.62,0-1.18,.13-1.68,.38-.5,.25-.94,.6-1.31,1.03s-.65,.93-.84,1.49c-.19,.56-.29,1.15-.29,1.78s.11,1.25,.33,1.81c.22,.56,.52,1.05,.9,1.47,.38,.42,.84,.75,1.38,.97s1.12,.34,1.74,.34c.4,0,.79-.06,1.17-.19,.38-.13,.74-.31,1.09-.54,.35-.24,.67-.51,.95-.82,.28-.31,.48-.67,.6-1.06Z"/><path class="cls-1" d="M264.77,158.3c-1.26,0-2.4-.21-3.42-.64-1.02-.42-1.89-1.01-2.61-1.75-.72-.74-1.27-1.59-1.65-2.54s-.57-1.97-.57-3.06c0-1.46,.33-2.81,1-4.05,.67-1.24,1.62-2.23,2.85-2.97,1.23-.74,2.7-1.11,4.42-1.11s3.16,.37,4.38,1.11c1.22,.74,2.16,1.72,2.82,2.93,.66,1.21,.99,2.53,.99,3.95,0,.26,0,.5-.03,.73-.02,.23-.04,.42-.06,.58h-12.12c.06,.82,.29,1.52,.68,2.1,.39,.58,.89,1.02,1.5,1.33,.61,.31,1.25,.47,1.93,.47,.82,0,1.58-.19,2.29-.58,.71-.39,1.2-.92,1.46-1.57l3.42,.96c-.36,.8-.89,1.51-1.59,2.13s-1.53,1.11-2.49,1.46-2.03,.52-3.21,.52Zm-4.11-9.33h8.22c-.08-.78-.31-1.46-.67-2.04-.37-.58-.86-1.03-1.46-1.35-.6-.32-1.27-.48-2.01-.48s-1.38,.16-1.96,.48-1.07,.77-1.44,1.35c-.37,.58-.6,1.26-.68,2.04Z"/><path class="cls-1" d="M104.69,176.06v-3.96h3.99v3.96h-3.99Zm0,17.94v-15.72h3.99v15.72h-3.99Z"/><path class="cls-1" d="M126.95,194h-4.02v-8.69c0-1.24-.21-2.15-.65-2.72-.43-.57-1.04-.86-1.84-.86-.54,0-1.08,.14-1.63,.41-.55,.27-1.04,.65-1.47,1.13-.43,.48-.77,1.03-1.01,1.66v9.08h-3.99v-15.57h3.63v2.9c.4-.67,.91-1.24,1.53-1.69,.62-.46,1.33-.81,2.13-1.07,.8-.26,1.66-.39,2.58-.39,.98,0,1.78,.17,2.42,.52,.63,.35,1.11,.82,1.44,1.41,.33,.59,.56,1.25,.69,1.97,.13,.72,.19,1.45,.19,2.18v9.73Z"/><path class="cls-1" d="M129.5,186.23c0-1.48,.3-2.84,.9-4.07,.6-1.23,1.43-2.19,2.49-2.91,1.06-.71,2.27-1.07,3.63-1.07,1.14,0,2.18,.28,3.12,.85,.94,.57,1.66,1.29,2.16,2.17v-9.12h4.05v17.4c0,.42,.07,.72,.21,.9,.14,.18,.38,.29,.72,.33v3.27c-.72,.14-1.29,.2-1.71,.18-.72,.02-1.32-.15-1.79-.51s-.74-.83-.79-1.41l-.06-.99c-.58,.98-1.36,1.73-2.35,2.25-.99,.52-2.03,.78-3.11,.78s-2.08-.2-2.98-.61c-.91-.41-1.7-.98-2.37-1.72-.67-.74-1.19-1.6-1.56-2.58-.37-.98-.55-2.03-.55-3.16Zm12.33,2.03v-3.65c-.2-.57-.52-1.08-.96-1.53-.44-.45-.93-.81-1.47-1.07-.54-.27-1.08-.4-1.62-.4-.62,0-1.18,.13-1.68,.38-.5,.25-.94,.6-1.31,1.03s-.65,.93-.84,1.49c-.19,.56-.29,1.15-.29,1.78s.11,1.25,.33,1.81c.22,.56,.52,1.05,.9,1.47,.38,.42,.84,.75,1.38,.97s1.12,.34,1.74,.34c.4,0,.79-.06,1.17-.19,.38-.13,.74-.31,1.09-.54,.35-.24,.67-.51,.95-.82,.28-.31,.48-.67,.6-1.06Z"/><path class="cls-1" d="M164.42,194h-4.02v-8.69c0-1.2-.24-2.1-.71-2.69-.47-.59-1.12-.89-1.93-.89-.48,0-.99,.14-1.53,.41s-1.03,.65-1.46,1.13c-.43,.48-.75,1.03-.97,1.66v9.08h-3.99v-21.9h3.99v9.23c.62-.99,1.42-1.76,2.42-2.31s2.07-.83,3.25-.83c1.02,0,1.85,.17,2.5,.5,.65,.34,1.15,.8,1.5,1.39,.35,.59,.59,1.25,.74,1.97,.14,.72,.21,1.46,.21,2.21v9.73Z"/><path class="cls-1" d="M175.19,194.3c-1.28,0-2.43-.22-3.44-.65s-1.88-1.03-2.59-1.78c-.72-.75-1.26-1.61-1.63-2.57-.37-.96-.55-1.97-.55-3.04s.18-2.15,.55-3.12c.37-.97,.91-1.82,1.62-2.57,.71-.74,1.58-1.33,2.59-1.75,1.02-.43,2.16-.64,3.42-.64s2.46,.21,3.46,.64,1.88,1.01,2.6,1.75c.72,.74,1.27,1.6,1.65,2.57,.38,.97,.57,2.01,.57,3.12s-.19,2.08-.57,3.04c-.38,.96-.93,1.82-1.65,2.57-.72,.75-1.59,1.35-2.6,1.78s-2.16,.65-3.43,.65Zm-4.11-8.04c0,.88,.18,1.68,.54,2.38,.36,.71,.86,1.26,1.49,1.65,.63,.39,1.32,.59,2.08,.59s1.45-.2,2.07-.6c.62-.4,1.11-.95,1.48-1.65s.56-1.5,.56-2.4-.19-1.67-.56-2.37-.87-1.25-1.48-1.65c-.62-.4-1.32-.6-2.1-.6s-1.45,.2-2.07,.6c-.62,.4-1.11,.95-1.47,1.65-.36,.7-.54,1.5-.54,2.4Z"/><path class="cls-1" d="M186.08,172.1h4.02v16.88c0,.74,.12,1.24,.36,1.49,.24,.25,.56,.38,.96,.38,.36,0,.71-.04,1.04-.12s.62-.19,.88-.33l.54,3.09c-.54,.26-1.17,.46-1.88,.6s-1.37,.21-1.96,.21c-1.26,0-2.24-.33-2.92-1.01-.69-.67-1.04-1.62-1.04-2.84v-18.35Z"/><path class="cls-1" d="M194.66,186.23c0-1.48,.3-2.84,.9-4.07,.6-1.23,1.43-2.19,2.49-2.91,1.06-.71,2.27-1.07,3.63-1.07,1.14,0,2.18,.28,3.12,.85,.94,.57,1.66,1.29,2.16,2.17v-9.12h4.05v17.4c0,.42,.07,.72,.21,.9,.14,.18,.38,.29,.72,.33v3.27c-.72,.14-1.29,.2-1.71,.18-.72,.02-1.32-.15-1.79-.51s-.74-.83-.79-1.41l-.06-.99c-.58,.98-1.36,1.73-2.35,2.25-.99,.52-2.03,.78-3.11,.78s-2.08-.2-2.98-.61c-.91-.41-1.7-.98-2.37-1.72-.67-.74-1.19-1.6-1.56-2.58-.37-.98-.55-2.03-.55-3.16Zm12.33,2.03v-3.65c-.2-.57-.52-1.08-.96-1.53-.44-.45-.93-.81-1.47-1.07-.54-.27-1.08-.4-1.62-.4-.62,0-1.18,.13-1.68,.38-.5,.25-.94,.6-1.31,1.03s-.65,.93-.84,1.49c-.19,.56-.29,1.15-.29,1.78s.11,1.25,.33,1.81c.22,.56,.52,1.05,.9,1.47,.38,.42,.84,.75,1.38,.97s1.12,.34,1.74,.34c.4,0,.79-.06,1.17-.19,.38-.13,.74-.31,1.09-.54,.35-.24,.67-.51,.95-.82,.28-.31,.48-.67,.6-1.06Z"/></g></svg>