<?xml version="1.0" encoding="UTF-8"?><svg id="Layer_1" xmlns="http://www.w3.org/2000/svg" width="316" height="316" xmlns:xlink="http://www.w3.org/1999/xlink" viewBox="0 0 316 316"><defs><style>.cls-1{fill:url(#radial-gradient);stroke:#cfc9e4;stroke-miterlimit:10;}.cls-2{fill:#2a1c50;}.cls-3{fill:#fff;opacity:.65;}</style><radialGradient id="radial-gradient" cx="158" cy="158" fx="158" fy="158" r="157.5" gradientUnits="userSpaceOnUse"><stop offset="0" stop-color="#9c98ca" stop-opacity="0"/><stop offset=".44" stop-color="#9c98ca" stop-opacity="0"/><stop offset=".59" stop-color="#9c98ca" stop-opacity=".04"/><stop offset=".71" stop-color="#9c98ca" stop-opacity=".1"/><stop offset=".8" stop-color="#9c98ca" stop-opacity=".18"/><stop offset=".87" stop-color="#9c98ca" stop-opacity=".29"/><stop offset=".91" stop-color="#9c98ca" stop-opacity=".36"/><stop offset=".92" stop-color="#9c98ca" stop-opacity=".4"/><stop offset=".94" stop-color="#9c98ca" stop-opacity=".53"/><stop offset=".97" stop-color="#9c98ca" stop-opacity=".73"/><stop offset="1" stop-color="#9c98ca"/></radialGradient></defs><g><circle class="cls-1" cx="158" cy="158" r="157.5"/><path class="cls-3" d="M204.3,44.47c0,19.48-22.32,2-46.3,1.82-22.6-.17-46.3,17.21-46.3-2.27s24.04-24.5,46.64-24.5,45.96,5.46,45.96,24.95Z"/><path class="cls-3" d="M109.69,274.85c0-19.48,24.26,.89,47.85,.89s48.77-19.93,48.77-.44-25.08,24.5-48.66,24.5-47.96-5.46-47.96-24.95Z"/></g><g><path class="cls-2" d="M96.35,136.7h4.2l7.83,21.3h-4.26l-1.77-5.31h-7.82l-1.78,5.31h-4.26l7.86-21.3Zm5.03,13.08l-2.93-8.79-2.94,8.79h5.88Z"/><path class="cls-2" d="M124.94,158h-4.02v-8.69c0-1.24-.21-2.15-.65-2.72-.43-.57-1.04-.86-1.84-.86-.54,0-1.08,.14-1.63,.41-.55,.27-1.04,.65-1.47,1.13-.43,.48-.77,1.03-1.01,1.66v9.08h-3.99v-15.57h3.63v2.9c.4-.67,.91-1.24,1.53-1.69,.62-.46,1.33-.81,2.13-1.07,.8-.26,1.66-.39,2.58-.39,.98,0,1.78,.17,2.42,.52,.63,.35,1.11,.82,1.44,1.41,.33,.59,.56,1.25,.69,1.97,.13,.72,.19,1.45,.19,2.18v9.73Z"/><path class="cls-2" d="M128.45,140.06v-3.96h3.99v3.96h-3.99Zm0,17.94v-15.72h3.99v15.72h-3.99Z"/><path class="cls-2" d="M160.52,158h-4.02v-8.69c0-1.24-.22-2.15-.65-2.72-.43-.57-1.02-.86-1.79-.86-.8,0-1.55,.3-2.25,.9-.7,.6-1.2,1.38-1.5,2.32v9.05h-4.05v-8.69c0-1.24-.21-2.15-.63-2.72-.42-.57-1.01-.86-1.77-.86s-1.53,.29-2.25,.88c-.72,.59-1.23,1.36-1.53,2.31v9.08h-3.99v-15.57h3.63v2.9c.6-1.01,1.41-1.78,2.42-2.33s2.16-.82,3.44-.82,2.31,.32,3.04,.95c.73,.63,1.19,1.41,1.39,2.34,.64-1.07,1.46-1.88,2.45-2.45,.99-.56,2.12-.84,3.38-.84,.96,0,1.74,.17,2.35,.52,.61,.35,1.08,.81,1.43,1.39,.34,.58,.57,1.24,.71,1.97,.13,.73,.19,1.46,.19,2.19v9.73Z"/><path class="cls-2" d="M162.95,153.41c0-1.01,.29-1.89,.85-2.64,.57-.75,1.36-1.34,2.37-1.76s2.18-.64,3.53-.64c.66,0,1.33,.05,2.01,.15,.68,.1,1.27,.26,1.77,.48v-.87c0-.96-.29-1.71-.87-2.24-.58-.53-1.45-.8-2.61-.8-.88,0-1.71,.15-2.49,.45s-1.6,.73-2.46,1.29l-1.26-2.61c1.02-.7,2.07-1.22,3.17-1.55,1.09-.33,2.24-.49,3.43-.49,2.24,0,3.99,.55,5.24,1.64,1.25,1.09,1.88,2.68,1.88,4.75v4.94c0,.41,.08,.71,.22,.89,.15,.18,.4,.29,.74,.33v3.27c-.36,.06-.69,.11-.97,.15-.29,.04-.54,.05-.74,.03-.8,0-1.41-.17-1.82-.52s-.66-.79-.73-1.31l-.09-.81c-.7,.88-1.56,1.56-2.58,2.04-1.02,.48-2.06,.72-3.12,.72s-1.98-.22-2.81-.65c-.83-.43-1.48-1.02-1.95-1.76-.47-.74-.71-1.57-.71-2.48Zm9.78,.75c.22-.19,.4-.42,.54-.67,.14-.25,.21-.47,.21-.64v-1.55c-.48-.2-1-.35-1.56-.45-.56-.11-1.09-.16-1.59-.16-1.04,0-1.9,.22-2.57,.66-.67,.44-1,1.02-1,1.74,0,.39,.11,.77,.33,1.13,.22,.36,.54,.65,.95,.86,.41,.21,.92,.32,1.51,.32s1.19-.12,1.77-.35c.58-.23,1.05-.53,1.41-.88Z"/><path class="cls-2" d="M190.52,157.22c-.36,.16-.78,.33-1.25,.5s-.98,.31-1.53,.42c-.55,.11-1.11,.17-1.67,.17-.76,0-1.45-.13-2.07-.39-.62-.26-1.12-.67-1.49-1.23-.37-.56-.55-1.3-.55-2.21v-8.98h-2.04v-3.06h2.04v-5.1h4.05v5.1h3.3v3.06h-3.3v7.61c.02,.53,.17,.92,.45,1.17,.28,.25,.64,.37,1.08,.37,.4,0,.8-.07,1.2-.22,.4-.15,.73-.29,.99-.41l.78,3.21Z"/><path class="cls-2" d="M192.62,140.06v-3.96h3.99v3.96h-3.99Zm0,17.94v-15.72h3.99v15.72h-3.99Z"/><path class="cls-2" d="M207.53,158.3c-1.28,0-2.43-.22-3.44-.65s-1.88-1.03-2.59-1.78c-.72-.75-1.26-1.61-1.63-2.57-.37-.96-.55-1.97-.55-3.04s.18-2.15,.55-3.12c.37-.97,.91-1.82,1.62-2.57,.71-.74,1.58-1.33,2.59-1.75,1.02-.43,2.16-.64,3.42-.64s2.46,.21,3.46,.64,1.88,1.01,2.6,1.75c.72,.74,1.27,1.6,1.65,2.57,.38,.97,.57,2.01,.57,3.12s-.19,2.08-.57,3.04c-.38,.96-.93,1.82-1.65,2.57-.72,.75-1.59,1.35-2.6,1.78s-2.16,.65-3.43,.65Zm-4.11-8.04c0,.88,.18,1.68,.54,2.38,.36,.71,.86,1.26,1.49,1.65,.63,.39,1.32,.59,2.08,.59s1.45-.2,2.07-.6c.62-.4,1.11-.95,1.48-1.65s.56-1.5,.56-2.4-.19-1.67-.56-2.37-.87-1.25-1.48-1.65c-.62-.4-1.32-.6-2.1-.6s-1.45,.2-2.07,.6c-.62,.4-1.11,.95-1.47,1.65-.36,.7-.54,1.5-.54,2.4Z"/><path class="cls-2" d="M233.06,158h-4.02v-8.69c0-1.24-.21-2.15-.65-2.72-.43-.57-1.04-.86-1.84-.86-.54,0-1.08,.14-1.63,.41-.55,.27-1.04,.65-1.47,1.13-.43,.48-.77,1.03-1.01,1.66v9.08h-3.99v-15.57h3.63v2.9c.4-.67,.91-1.24,1.53-1.69,.62-.46,1.33-.81,2.13-1.07,.8-.26,1.66-.39,2.58-.39,.98,0,1.78,.17,2.42,.52,.63,.35,1.11,.82,1.44,1.41,.33,.59,.56,1.25,.69,1.97,.13,.72,.19,1.45,.19,2.18v9.73Z"/></g></svg>