<?xml version="1.0" encoding="UTF-8"?><svg id="Layer_1" xmlns="http://www.w3.org/2000/svg" width="807.32" height="167.33" viewBox="0 0 807.32 167.33"><defs><style>.cls-1{fill:#384ca0;}.cls-2{fill:none;stroke:#707071;}</style></defs><g id="Rectangle_60"><path class="cls-2" d="M153.37,75.87h472.01c7.73,0,13.99,6.27,13.99,13.99h0c0,7.73-6.27,13.99-13.99,13.99H153.37c-7.73,0-13.99-6.27-13.99-13.99h0c0-7.73,6.27-13.99,13.99-13.99Z"/></g><g id="Rectangle_61"><path class="cls-1" d="M152.15,75.87h102.18c7.05,0,12.77,6.27,12.77,13.99h0c0,7.73-5.72,13.99-12.77,13.99h-102.18c-7.05,0-12.77-6.27-12.77-13.99h0c0-7.73,5.72-13.99,12.77-13.99Z"/></g></svg>