<?xml version="1.0" encoding="UTF-8"?><svg id="Layer_1" xmlns="http://www.w3.org/2000/svg" width="482.81" height="340" xmlns:xlink="http://www.w3.org/1999/xlink" viewBox="0 0 482.81 340"><defs><style>.cls-1{fill:url(#radial-gradient);stroke:#cfc9e4;stroke-miterlimit:10;}.cls-2{fill:#e8e4fe;}.cls-3{fill:#2a1c50;}.cls-4{fill:#fff;opacity:.65;}</style><radialGradient id="radial-gradient" cx="296.48" cy="170" fx="296.48" fy="170" r="157.5" gradientUnits="userSpaceOnUse"><stop offset="0" stop-color="#9c98ca" stop-opacity="0"/><stop offset=".44" stop-color="#9c98ca" stop-opacity="0"/><stop offset=".59" stop-color="#9c98ca" stop-opacity=".04"/><stop offset=".71" stop-color="#9c98ca" stop-opacity=".1"/><stop offset=".8" stop-color="#9c98ca" stop-opacity=".18"/><stop offset=".87" stop-color="#9c98ca" stop-opacity=".29"/><stop offset=".91" stop-color="#9c98ca" stop-opacity=".36"/><stop offset=".92" stop-color="#9c98ca" stop-opacity=".4"/><stop offset=".94" stop-color="#9c98ca" stop-opacity=".53"/><stop offset=".97" stop-color="#9c98ca" stop-opacity=".73"/><stop offset="1" stop-color="#9c98ca"/></radialGradient></defs><path class="cls-2" d="M0,0H317.81C408.87,0,482.81,73.93,482.81,165v10c0,91.07-73.93,165-165,165H0V0H0Z"/><g><circle class="cls-1" cx="296.48" cy="170" r="157.5"/><path class="cls-4" d="M342.79,56.47c0,19.48-22.32,2-46.3,1.82-22.6-.17-46.3,17.21-46.3-2.27s24.04-24.5,46.64-24.5,45.96,5.46,45.96,24.95Z"/><path class="cls-4" d="M248.17,286.85c0-19.48,24.26,.89,47.85,.89s48.77-19.93,48.77-.44-25.08,24.5-48.66,24.5-47.96-5.46-47.96-24.95Z"/></g><g><path class="cls-3" d="M188.33,170.14c-1.4,0-2.71-.27-3.93-.82s-2.29-1.33-3.22-2.33-1.66-2.16-2.17-3.46c-.52-1.31-.78-2.75-.78-4.31,0-1.46,.26-2.83,.79-4.12s1.26-2.43,2.19-3.42c.93-.99,2.02-1.76,3.29-2.31,1.26-.55,2.62-.83,4.08-.83,2.02,0,3.75,.42,5.18,1.26,1.43,.84,2.5,1.97,3.22,3.39l-3.09,2.28c-.52-1.06-1.27-1.87-2.25-2.43-.98-.56-2.04-.84-3.18-.84-.9,0-1.73,.19-2.48,.57-.75,.38-1.39,.9-1.93,1.56s-.95,1.42-1.23,2.28c-.28,.86-.42,1.77-.42,2.73,0,1.02,.16,1.96,.46,2.82,.31,.86,.75,1.62,1.32,2.26,.57,.65,1.23,1.16,2,1.52,.76,.36,1.6,.54,2.52,.54,1.1,0,2.14-.28,3.12-.84,.98-.56,1.9-1.38,2.76-2.46v4.11c-1.78,1.9-3.86,2.85-6.24,2.85Zm5.94-8.07h-4.29v-3.03h7.71v10.95h-3.42v-7.92Z"/><path class="cls-3" d="M210.23,157.75c-1.24,.02-2.34,.25-3.3,.71s-1.66,1.12-2.1,2v9.54h-3.99v-15.57h3.69v3.21c.56-1.08,1.28-1.93,2.15-2.55s1.79-.96,2.75-1.02c.2,.02,.36,.03,.48,.02s.23,0,.33,.04v3.63Z"/><path class="cls-3" d="M212.27,164.17v-9.75h4.05v8.86c0,1.19,.22,2.08,.66,2.68,.44,.6,1.09,.9,1.95,.9,.52,0,1.04-.1,1.55-.31,.51-.21,.98-.51,1.41-.92,.43-.41,.79-.93,1.1-1.56v-9.66h4.05v11.08c0,.42,.07,.71,.21,.89,.14,.18,.38,.29,.72,.33v3.27c-.4,.06-.73,.1-1,.13-.27,.03-.51,.04-.74,.04-.7,0-1.27-.17-1.72-.5-.45-.34-.73-.78-.83-1.34l-.09-1.25c-.7,1.05-1.59,1.85-2.68,2.39-1.09,.54-2.31,.82-3.65,.82-1.62,0-2.86-.52-3.71-1.56-.85-1.04-1.27-2.56-1.27-4.56Z"/><path class="cls-3" d="M245.6,169.99h-4.02v-8.69c0-1.24-.21-2.15-.64-2.72-.43-.57-1.05-.86-1.85-.86-.54,0-1.08,.14-1.63,.41-.55,.27-1.04,.65-1.47,1.13-.43,.48-.77,1.03-1,1.66v9.08h-3.99v-15.57h3.63v2.9c.4-.67,.91-1.24,1.53-1.69,.62-.46,1.33-.81,2.13-1.07s1.66-.39,2.58-.39c.98,0,1.79,.17,2.42,.52s1.11,.82,1.44,1.41,.56,1.25,.69,1.97c.13,.72,.2,1.45,.2,2.18v9.73Z"/><path class="cls-3" d="M248.15,162.22c0-1.48,.3-2.84,.9-4.06,.6-1.23,1.43-2.2,2.49-2.91s2.27-1.07,3.63-1.07c1.14,0,2.18,.29,3.12,.86s1.66,1.29,2.16,2.17v-9.12h4.05v17.4c0,.42,.07,.72,.21,.9,.14,.18,.38,.29,.72,.33v3.27c-.72,.14-1.29,.2-1.71,.18-.72,.02-1.32-.15-1.79-.51-.47-.36-.74-.83-.79-1.41l-.06-.99c-.58,.98-1.37,1.73-2.35,2.25-.99,.52-2.03,.78-3.11,.78s-2.08-.2-2.98-.61c-.91-.41-1.7-.98-2.37-1.72-.67-.74-1.19-1.6-1.56-2.58-.37-.98-.55-2.03-.55-3.16Zm12.33,2.03v-3.65c-.2-.57-.52-1.08-.96-1.53-.44-.45-.93-.81-1.47-1.07-.54-.26-1.08-.4-1.62-.4-.62,0-1.18,.13-1.68,.38s-.93,.6-1.3,1.03-.65,.93-.84,1.49c-.19,.56-.29,1.15-.29,1.78s.11,1.25,.33,1.81c.22,.56,.52,1.05,.9,1.47s.84,.75,1.38,.97c.54,.23,1.12,.34,1.74,.34,.4,0,.79-.06,1.17-.19s.75-.31,1.1-.54c.35-.24,.66-.51,.94-.82s.48-.67,.6-1.06Z"/><path class="cls-3" d="M268.43,148.09h4.02v16.88c0,.74,.12,1.24,.36,1.49,.24,.25,.56,.38,.96,.38,.36,0,.71-.04,1.04-.12,.33-.08,.62-.19,.88-.33l.54,3.09c-.54,.26-1.17,.46-1.88,.6s-1.36,.21-1.96,.21c-1.26,0-2.23-.34-2.92-1.01s-1.04-1.62-1.04-2.84v-18.35Z"/><path class="cls-3" d="M282.23,170.29c-1,0-1.91-.22-2.71-.65s-1.45-1.02-1.92-1.76c-.47-.74-.71-1.58-.71-2.51,0-.99,.29-1.86,.86-2.61,.57-.75,1.35-1.34,2.35-1.76,1-.42,2.16-.64,3.48-.64,.66,0,1.29,.05,1.9,.17,.61,.11,1.16,.25,1.64,.43,.02-.22,.04-.44,.07-.67,.03-.23,.08-.44,.17-.64-.1-.86-.43-1.53-.99-1.99-.56-.46-1.38-.69-2.46-.69-.84,0-1.66,.15-2.46,.45s-1.63,.73-2.49,1.29l-1.2-2.52c2.04-1.34,4.21-2.01,6.51-2.01,1.26,0,2.35,.2,3.27,.58,.92,.39,1.67,.95,2.25,1.67,.66-.7,1.46-1.25,2.42-1.65,.95-.4,2-.6,3.17-.6,1.7,0,3.17,.37,4.41,1.11,1.24,.74,2.19,1.72,2.85,2.93,.66,1.21,.99,2.55,.99,4.01,0,.22-.01,.44-.03,.67-.02,.23-.04,.42-.06,.58h-12.3c.06,.82,.29,1.52,.69,2.1,.4,.58,.92,1.02,1.56,1.33,.64,.31,1.33,.47,2.07,.47,.8,0,1.55-.2,2.26-.58s1.21-.92,1.49-1.58l3.42,.96c-.4,.8-.95,1.51-1.65,2.13-.7,.62-1.53,1.11-2.49,1.46s-2.02,.53-3.18,.53c-1.46,0-2.77-.29-3.93-.88-1.16-.59-2.09-1.38-2.79-2.36-.48,.76-1.08,1.38-1.82,1.86-.73,.48-1.5,.83-2.31,1.05s-1.58,.33-2.33,.33Zm1.17-2.91c.66,0,1.3-.12,1.92-.37,.62-.24,1.11-.56,1.47-.95,.42-.31,.63-.66,.63-1.05-.08-.25-.15-.56-.2-.92s-.08-.69-.1-.98c-.44-.14-.92-.25-1.43-.35-.51-.1-1-.15-1.46-.15-1.04,0-1.89,.22-2.55,.67-.66,.45-.99,1.03-.99,1.76,0,.43,.12,.82,.35,1.18,.23,.36,.55,.64,.96,.85,.41,.2,.87,.31,1.39,.31Zm16.08-6.36c-.06-.78-.28-1.47-.66-2.05-.38-.59-.87-1.05-1.47-1.38s-1.28-.5-2.04-.5-1.45,.17-2.05,.5c-.61,.33-1.1,.79-1.46,1.36-.36,.58-.57,1.27-.63,2.07h8.31Z"/><path class="cls-3" d="M312.23,170.29c-1.04,0-2-.21-2.87-.63-.87-.42-1.62-1-2.24-1.73s-1.1-1.58-1.44-2.54c-.34-.96-.51-1.98-.51-3.07,0-1.14,.17-2.2,.53-3.19,.35-.98,.85-1.85,1.5-2.6,.65-.75,1.42-1.33,2.31-1.74,.89-.41,1.88-.62,2.96-.62,1.22,0,2.29,.27,3.21,.81s1.68,1.27,2.28,2.19v-2.76h3.51v14.87c0,1.55-.38,2.88-1.14,3.98-.76,1.1-1.79,1.95-3.09,2.53-1.3,.59-2.8,.88-4.5,.88s-3.14-.29-4.32-.85c-1.18-.57-2.19-1.38-3.03-2.42l2.19-2.13c.6,.74,1.35,1.32,2.26,1.74,.91,.42,1.88,.63,2.9,.63,.84,0,1.62-.15,2.34-.44,.72-.29,1.29-.74,1.71-1.36,.42-.61,.63-1.42,.63-2.41v-1.98c-.5,.9-1.23,1.6-2.17,2.08-.95,.49-1.96,.74-3.01,.74Zm1.35-3.21c.46,0,.88-.07,1.28-.21,.39-.14,.75-.33,1.09-.57,.34-.24,.64-.53,.9-.86,.26-.33,.45-.68,.57-1.04v-3.73c-.22-.62-.54-1.16-.97-1.62-.43-.46-.91-.82-1.44-1.07s-1.08-.38-1.67-.38-1.16,.13-1.67,.39-.94,.62-1.3,1.08c-.36,.46-.64,.98-.84,1.57-.2,.58-.3,1.18-.3,1.81s.11,1.24,.34,1.81c.23,.56,.54,1.06,.93,1.49,.39,.43,.86,.76,1.4,.99s1.1,.35,1.68,.35Z"/><path class="cls-3" d="M331.25,170.29c-1.04,0-2-.21-2.87-.63-.87-.42-1.62-1-2.24-1.73s-1.1-1.58-1.44-2.54c-.34-.96-.51-1.98-.51-3.07,0-1.14,.17-2.2,.53-3.19,.35-.98,.85-1.85,1.5-2.6,.65-.75,1.42-1.33,2.31-1.74,.89-.41,1.88-.62,2.96-.62,1.22,0,2.29,.27,3.21,.81s1.68,1.27,2.28,2.19v-2.76h3.51v14.87c0,1.55-.38,2.88-1.14,3.98-.76,1.1-1.79,1.95-3.09,2.53-1.3,.59-2.8,.88-4.5,.88s-3.14-.29-4.32-.85c-1.18-.57-2.19-1.38-3.03-2.42l2.19-2.13c.6,.74,1.35,1.32,2.26,1.74,.91,.42,1.88,.63,2.9,.63,.84,0,1.62-.15,2.34-.44,.72-.29,1.29-.74,1.71-1.36,.42-.61,.63-1.42,.63-2.41v-1.98c-.5,.9-1.23,1.6-2.17,2.08-.95,.49-1.96,.74-3.01,.74Zm1.35-3.21c.46,0,.88-.07,1.28-.21,.39-.14,.75-.33,1.09-.57,.34-.24,.64-.53,.9-.86,.26-.33,.45-.68,.57-1.04v-3.73c-.22-.62-.54-1.16-.97-1.62-.43-.46-.91-.82-1.44-1.07s-1.08-.38-1.67-.38-1.16,.13-1.67,.39-.94,.62-1.3,1.08c-.36,.46-.64,.98-.84,1.57-.2,.58-.3,1.18-.3,1.81s.11,1.24,.34,1.81c.23,.56,.54,1.06,.93,1.49,.39,.43,.86,.76,1.4,.99s1.1,.35,1.68,.35Z"/><path class="cls-3" d="M351.41,170.29c-1.26,0-2.4-.21-3.42-.64-1.02-.42-1.89-1.01-2.61-1.75-.72-.74-1.27-1.59-1.65-2.54-.38-.95-.57-1.97-.57-3.06,0-1.46,.33-2.81,1-4.05s1.62-2.23,2.85-2.97c1.23-.74,2.71-1.11,4.43-1.11s3.16,.37,4.38,1.11c1.22,.74,2.16,1.72,2.82,2.93,.66,1.21,.99,2.53,.99,3.95,0,.26,0,.5-.03,.73-.02,.23-.04,.42-.06,.58h-12.12c.06,.82,.29,1.52,.67,2.1,.39,.58,.89,1.02,1.5,1.33,.61,.31,1.25,.47,1.94,.47,.82,0,1.58-.2,2.29-.58s1.19-.92,1.46-1.58l3.42,.96c-.36,.8-.89,1.51-1.59,2.13-.7,.62-1.53,1.11-2.49,1.46s-2.03,.53-3.21,.53Zm-4.11-9.33h8.22c-.08-.78-.31-1.46-.68-2.04-.37-.58-.85-1.03-1.46-1.35-.6-.32-1.27-.48-2.01-.48s-1.38,.16-1.96,.48c-.59,.32-1.07,.77-1.44,1.35-.37,.58-.59,1.26-.67,2.04Z"/><path class="cls-3" d="M376.7,169.99h-4.02v-8.69c0-1.24-.21-2.15-.64-2.72-.43-.57-1.05-.86-1.85-.86-.54,0-1.08,.14-1.63,.41-.55,.27-1.04,.65-1.47,1.13-.43,.48-.77,1.03-1,1.66v9.08h-3.99v-15.57h3.63v2.9c.4-.67,.91-1.24,1.53-1.69,.62-.46,1.33-.81,2.13-1.07s1.66-.39,2.58-.39c.98,0,1.79,.17,2.42,.52s1.11,.82,1.44,1.41,.56,1.25,.69,1.97c.13,.72,.2,1.45,.2,2.18v9.73Z"/><path class="cls-3" d="M379.25,162.22c0-1.48,.3-2.84,.9-4.06,.6-1.23,1.43-2.2,2.49-2.91s2.27-1.07,3.63-1.07c1.14,0,2.18,.29,3.12,.86s1.66,1.29,2.16,2.17v-9.12h4.05v17.4c0,.42,.07,.72,.21,.9,.14,.18,.38,.29,.72,.33v3.27c-.72,.14-1.29,.2-1.71,.18-.72,.02-1.32-.15-1.79-.51-.47-.36-.74-.83-.79-1.41l-.06-.99c-.58,.98-1.37,1.73-2.35,2.25-.99,.52-2.03,.78-3.11,.78s-2.08-.2-2.98-.61c-.91-.41-1.7-.98-2.37-1.72-.67-.74-1.19-1.6-1.56-2.58-.37-.98-.55-2.03-.55-3.16Zm12.33,2.03v-3.65c-.2-.57-.52-1.08-.96-1.53-.44-.45-.93-.81-1.47-1.07-.54-.26-1.08-.4-1.62-.4-.62,0-1.18,.13-1.68,.38s-.93,.6-1.3,1.03-.65,.93-.84,1.49c-.19,.56-.29,1.15-.29,1.78s.11,1.25,.33,1.81c.22,.56,.52,1.05,.9,1.47s.84,.75,1.38,.97c.54,.23,1.12,.34,1.74,.34,.4,0,.79-.06,1.17-.19s.75-.31,1.1-.54c.35-.24,.66-.51,.94-.82s.48-.67,.6-1.06Z"/><path class="cls-3" d="M406.85,170.29c-1.26,0-2.4-.21-3.42-.64-1.02-.42-1.89-1.01-2.61-1.75-.72-.74-1.27-1.59-1.65-2.54-.38-.95-.57-1.97-.57-3.06,0-1.46,.33-2.81,1-4.05s1.62-2.23,2.85-2.97c1.23-.74,2.71-1.11,4.43-1.11s3.16,.37,4.38,1.11c1.22,.74,2.16,1.72,2.82,2.93,.66,1.21,.99,2.53,.99,3.95,0,.26,0,.5-.03,.73-.02,.23-.04,.42-.06,.58h-12.12c.06,.82,.29,1.52,.67,2.1,.39,.58,.89,1.02,1.5,1.33,.61,.31,1.25,.47,1.94,.47,.82,0,1.58-.2,2.29-.58s1.19-.92,1.46-1.58l3.42,.96c-.36,.8-.89,1.51-1.59,2.13-.7,.62-1.53,1.11-2.49,1.46s-2.03,.53-3.21,.53Zm-4.11-9.33h8.22c-.08-.78-.31-1.46-.68-2.04-.37-.58-.85-1.03-1.46-1.35-.6-.32-1.27-.48-2.01-.48s-1.38,.16-1.96,.48c-.59,.32-1.07,.77-1.44,1.35-.37,.58-.59,1.26-.67,2.04Z"/><path class="cls-3" d="M272.75,184.75h3.84l2.43,7.02,2.46-7.02h3.81l-3.63,9.66,2.67,6.81,6.03-16.53h4.5l-8.52,21.3h-3.57l-3.75-8.94-3.72,8.94h-3.57l-8.49-21.3h4.44l6.03,16.53,2.67-6.81-3.63-9.66Z"/><path class="cls-3" d="M301.85,206.29c-1.26,0-2.4-.21-3.42-.64-1.02-.42-1.89-1.01-2.61-1.75-.72-.74-1.27-1.59-1.65-2.54-.38-.95-.57-1.97-.57-3.06,0-1.46,.33-2.81,1-4.05s1.62-2.23,2.85-2.97c1.23-.74,2.71-1.11,4.43-1.11s3.16,.37,4.38,1.11c1.22,.74,2.16,1.72,2.82,2.93,.66,1.21,.99,2.53,.99,3.95,0,.26,0,.5-.03,.73-.02,.23-.04,.42-.06,.58h-12.12c.06,.82,.29,1.52,.67,2.1,.39,.58,.89,1.02,1.5,1.33,.61,.31,1.25,.47,1.94,.47,.82,0,1.58-.2,2.29-.58s1.19-.92,1.46-1.58l3.42,.96c-.36,.8-.89,1.51-1.59,2.13-.7,.62-1.53,1.11-2.49,1.46s-2.03,.53-3.21,.53Zm-4.11-9.33h8.22c-.08-.78-.31-1.46-.68-2.04-.37-.58-.85-1.03-1.46-1.35-.6-.32-1.27-.48-2.01-.48s-1.38,.16-1.96,.48c-.59,.32-1.07,.77-1.44,1.35-.37,.58-.59,1.26-.67,2.04Z"/><path class="cls-3" d="M321.47,206.29c-1.2,0-2.27-.27-3.21-.81-.94-.54-1.68-1.28-2.22-2.22v2.73h-3.51v-21.9h3.99v9.12c.58-.94,1.32-1.68,2.23-2.22s1.98-.81,3.2-.81c1.02,0,1.95,.21,2.79,.64,.84,.42,1.56,1.01,2.17,1.76,.61,.75,1.08,1.62,1.42,2.6,.34,.98,.51,2.01,.51,3.1s-.19,2.17-.57,3.13-.91,1.81-1.58,2.55c-.67,.74-1.45,1.32-2.33,1.72s-1.85,.61-2.91,.61Zm-1.14-3.42c.64,0,1.23-.12,1.79-.35,.55-.24,1.01-.56,1.39-.99s.68-.91,.89-1.46c.21-.55,.31-1.15,.31-1.79,0-.8-.17-1.57-.51-2.3-.34-.73-.82-1.3-1.44-1.74-.62-.43-1.34-.65-2.16-.65-.58,0-1.14,.14-1.67,.41-.53,.28-1,.63-1.41,1.07-.41,.44-.75,.95-1,1.52v3.68c.16,.39,.37,.75,.63,1.07,.26,.32,.57,.59,.93,.81s.74,.39,1.12,.51,.76,.19,1.12,.19Z"/></g></svg>